REM DIRINDEX 1\6,1\2\7,1\2\8,1\2\9,1\3\10,1\3\11,1\4\12,1\4\13,1\4\14,1\5\15,1\5\16,1\5\17
REM DIRNAME folder01,folder02,folder03,folder04,folder05,folder06,folder07,folder08,folder09,folder10,folder11,folder12,folder13,folder14,folder15,folder16,folder17
TITLE ""
FILE "P2Q_t2_0857-0874.mp3" MP3
  TRACK 01 AUDIO
    TITLE "7:cjc040_6404"
    INDEX 01 00:00:00
  TRACK 02 AUDIO
    TITLE "0:"
    INDEX 01 00:01:17
  TRACK 03 AUDIO
    TITLE "8:cjc040_6405"
    INDEX 01 00:02:04
  TRACK 04 AUDIO
    TITLE "0:"
    INDEX 01 00:04:19
  TRACK 05 AUDIO
    TITLE "9:cjc040_6406"
    INDEX 01 00:04:72
  TRACK 06 AUDIO
    TITLE "0:"
    INDEX 01 00:06:22
  TRACK 07 AUDIO
    TITLE "7:cjc040_6407"
    INDEX 01 00:07:72
  TRACK 08 AUDIO
    TITLE "0:"
    INDEX 01 00:09:28
  TRACK 09 AUDIO
    TITLE "8:cjc040_6408"
    INDEX 01 00:10:00
  TRACK 10 AUDIO
    TITLE "0:"
    INDEX 01 00:11:13
  TRACK 11 AUDIO
    TITLE "9:cjc040_6409"
    INDEX 01 00:11:68
  TRACK 12 AUDIO
    TITLE "0:"
    INDEX 01 00:13:28
  TRACK 13 AUDIO
    TITLE "7:cjc040_6410"
    INDEX 01 00:15:07
  TRACK 14 AUDIO
    TITLE "0:"
    INDEX 01 00:16:16
  TRACK 15 AUDIO
    TITLE "8:cjc040_6411"
    INDEX 01 00:16:69
  TRACK 16 AUDIO
    TITLE "0:"
    INDEX 01 00:17:74
  TRACK 17 AUDIO
    TITLE "9:cjc040_6412"
    INDEX 01 00:18:56
  TRACK 18 AUDIO
    TITLE "0:"
    INDEX 01 00:19:67
  TRACK 19 AUDIO
    TITLE "7:cjc040_6413"
    INDEX 01 00:21:49
  TRACK 20 AUDIO
    TITLE "0:"
    INDEX 01 00:22:68
  TRACK 21 AUDIO
    TITLE "8:cjc040_6414"
    INDEX 01 00:23:50
  TRACK 22 AUDIO
    TITLE "0:"
    INDEX 01 00:26:50
  TRACK 23 AUDIO
    TITLE "9:cjc040_6415"
    INDEX 01 00:27:30
  TRACK 24 AUDIO
    TITLE "0:"
    INDEX 01 00:28:55
  TRACK 25 AUDIO
    TITLE "7:cjc040_6416"
    INDEX 01 00:30:44
  TRACK 26 AUDIO
    TITLE "0:"
    INDEX 01 00:31:41
  TRACK 27 AUDIO
    TITLE "8:cjc040_6417"
    INDEX 01 00:32:25
  TRACK 28 AUDIO
    TITLE "0:"
    INDEX 01 00:34:34
  TRACK 29 AUDIO
    TITLE "9:cjc040_6418"
    INDEX 01 00:35:10
  TRACK 30 AUDIO
    TITLE "0:"
    INDEX 01 00:36:13
  TRACK 31 AUDIO
    TITLE "7:cjc040_6419"
    INDEX 01 00:38:02
  TRACK 32 AUDIO
    TITLE "0:"
    INDEX 01 00:39:17
  TRACK 33 AUDIO
    TITLE "8:cjc040_6420"
    INDEX 01 00:39:68
  TRACK 34 AUDIO
    TITLE "0:"
    INDEX 01 00:41:55
  TRACK 35 AUDIO
    TITLE "9:cjc040_6421"
    INDEX 01 00:42:35
  TRACK 36 AUDIO
    TITLE "0:"
    INDEX 01 00:43:52
  TRACK 37 AUDIO
    TITLE "7:cjc040_6422"
    INDEX 01 00:45:35
  TRACK 38 AUDIO
    TITLE "0:"
    INDEX 01 00:46:54
  TRACK 39 AUDIO
    TITLE "8:cjc040_6423"
    INDEX 01 00:47:34
  TRACK 40 AUDIO
    TITLE "0:"
    INDEX 01 00:51:01
  TRACK 41 AUDIO
    TITLE "9:cjc040_6424"
    INDEX 01 00:51:60
  TRACK 42 AUDIO
    TITLE "0:"
    INDEX 01 00:53:04
  TRACK 43 AUDIO
    TITLE "7:cjc040_6425"
    INDEX 01 00:54:60
  TRACK 44 AUDIO
    TITLE "0:"
    INDEX 01 00:55:73
  TRACK 45 AUDIO
    TITLE "8:cjc040_6426"
    INDEX 01 00:56:63
  TRACK 46 AUDIO
    TITLE "0:"
    INDEX 01 01:00:19
  TRACK 47 AUDIO
    TITLE "9:cjc040_6427"
    INDEX 01 01:00:74
  TRACK 48 AUDIO
    TITLE "0:"
    INDEX 01 01:02:14
  TRACK 49 AUDIO
    TITLE "7:cjc040_6428"
    INDEX 01 01:03:73
  TRACK 50 AUDIO
    TITLE "0:"
    INDEX 01 01:05:13
  TRACK 51 AUDIO
    TITLE "8:cjc040_6429"
    INDEX 01 01:05:69
  TRACK 52 AUDIO
    TITLE "0:"
    INDEX 01 01:08:19
  TRACK 53 AUDIO
    TITLE "9:cjc040_6430"
    INDEX 01 01:09:01
  TRACK 54 AUDIO
    TITLE "0:"
    INDEX 01 01:10:20
  TRACK 55 AUDIO
    TITLE "7:cjc040_6431"
    INDEX 01 01:12:07
  TRACK 56 AUDIO
    TITLE "0:"
    INDEX 01 01:13:10
  TRACK 57 AUDIO
    TITLE "8:cjc040_6432"
    INDEX 01 01:13:63
  TRACK 58 AUDIO
    TITLE "0:"
    INDEX 01 01:17:02
  TRACK 59 AUDIO
    TITLE "9:cjc040_6433"
    INDEX 01 01:17:55
  TRACK 60 AUDIO
    TITLE "0:"
    INDEX 01 01:18:62
  TRACK 61 AUDIO
    TITLE "7:cjc040_6434"
    INDEX 01 01:20:40
  TRACK 62 AUDIO
    TITLE "0:"
    INDEX 01 01:21:61
  TRACK 63 AUDIO
    TITLE "8:cjc040_6435"
    INDEX 01 01:22:42
  TRACK 64 AUDIO
    TITLE "0:"
    INDEX 01 01:26:13
  TRACK 65 AUDIO
    TITLE "9:cjc040_6436"
    INDEX 01 01:26:66
  TRACK 66 AUDIO
    TITLE "0:"
    INDEX 01 01:28:14
  TRACK 67 AUDIO
    TITLE "7:cjc040_6437"
    INDEX 01 01:29:66
  TRACK 68 AUDIO
    TITLE "0:"
    INDEX 01 01:31:16
  TRACK 69 AUDIO
    TITLE "8:cjc040_6438"
    INDEX 01 01:32:00
  TRACK 70 AUDIO
    TITLE "0:"
    INDEX 01 01:32:55
  TRACK 71 AUDIO
    TITLE "9:cjc040_6439"
    INDEX 01 01:33:29
  TRACK 72 AUDIO
    TITLE "0:"
    INDEX 01 01:34:55
  TRACK 73 AUDIO
    TITLE "7:cjc040_6440"
    INDEX 01 01:36:37
  TRACK 74 AUDIO
    TITLE "0:"
    INDEX 01 01:38:02
  TRACK 75 AUDIO
    TITLE "8:cjc040_6441"
    INDEX 01 01:38:49
  TRACK 76 AUDIO
    TITLE "0:"
    INDEX 01 01:39:66
  TRACK 77 AUDIO
    TITLE "9:cjc040_6442"
    INDEX 01 01:40:40
  TRACK 78 AUDIO
    TITLE "0:"
    INDEX 01 01:42:04
  TRACK 79 AUDIO
    TITLE "7:cjc040_6443"
    INDEX 01 01:43:62
  TRACK 80 AUDIO
    TITLE "0:"
    INDEX 01 01:45:16
  TRACK 81 AUDIO
    TITLE "8:cjc040_6444"
    INDEX 01 01:46:00
  TRACK 82 AUDIO
    TITLE "0:"
    INDEX 01 01:49:55
  TRACK 83 AUDIO
    TITLE "9:cjc040_6445"
    INDEX 01 01:50:37
  TRACK 84 AUDIO
    TITLE "0:"
    INDEX 01 01:51:64
  TRACK 85 AUDIO
    TITLE "7:cjc040_6446"
    INDEX 01 01:53:47
  TRACK 86 AUDIO
    TITLE "0:"
    INDEX 01 01:54:74
  TRACK 87 AUDIO
    TITLE "8:cjc040_6447"
    INDEX 01 01:55:52
  TRACK 88 AUDIO
    TITLE "0:"
    INDEX 01 01:59:51
  TRACK 89 AUDIO
    TITLE "9:cjc040_6448"
    INDEX 01 02:00:29
  TRACK 90 AUDIO
    TITLE "0:"
    INDEX 01 02:01:52
  TRACK 91 AUDIO
    TITLE "7:cjc040_6449"
    INDEX 01 02:03:39
  TRACK 92 AUDIO
    TITLE "0:"
    INDEX 01 02:04:74
  TRACK 93 AUDIO
    TITLE "8:cjc040_6450"
    INDEX 01 02:05:54
  TRACK 94 AUDIO
    TITLE "0:"
    INDEX 01 02:07:61
  TRACK 95 AUDIO
    TITLE "9:cjc040_6451"
    INDEX 01 02:08:39
  TRACK 96 AUDIO
    TITLE "0:"
    INDEX 01 02:09:68
  TRACK 97 AUDIO
    TITLE "7:cjc040_6452"
    INDEX 01 02:11:53
  TRACK 98 AUDIO
    TITLE "0:"
    INDEX 01 02:12:70
  TRACK 99 AUDIO
    TITLE "8:cjc040_6453"
    INDEX 01 02:13:50
  TRACK 100 AUDIO
    TITLE "0:"
    INDEX 01 02:14:49
  TRACK 101 AUDIO
    TITLE "9:cjc040_6454"
    INDEX 01 02:15:29
  TRACK 102 AUDIO
    TITLE "0:"
    INDEX 01 02:16:52
  TRACK 103 AUDIO
    TITLE "7:cjc040_6455"
    INDEX 01 02:18:35
  TRACK 104 AUDIO
    TITLE "0:"
    INDEX 01 02:19:56
  TRACK 105 AUDIO
    TITLE "8:cjc040_6456"
    INDEX 01 02:20:36
  TRACK 106 AUDIO
    TITLE "0:"
    INDEX 01 02:21:37
  TRACK 107 AUDIO
    TITLE "9:cjc040_6457"
    INDEX 01 02:22:11
  TRACK 108 AUDIO
    TITLE "0:"
    INDEX 01 02:23:30
